<svg width="22" height="20" viewBox="0 0 22 20" fill="none" xmlns="http://www.w3.org/2000/svg">
    <path d="M11.3948 0C17.1937 0 21.8948 4.47677 21.8948 9.99916C21.8948 15.5215 17.1937 19.9983 11.3948 19.9983C9.69556 19.9983 8.05349 19.6129 6.57828 18.8864L2.56117 19.9536C1.863 20.1393 1.13898 19.7508 0.944031 19.086C0.879508 18.866 0.87954 18.6333 0.944073 18.4135L2.06512 14.591C1.30046 13.1849 0.894775 11.6193 0.894775 9.99916C0.894775 4.47677 5.59578 0 11.3948 0ZM11.3948 1.49987C6.46563 1.49987 2.46978 5.30513 2.46978 9.99916C2.46978 11.4686 2.86118 12.8823 3.59646 14.1363L3.75464 14.406L2.58628 18.3898L6.7722 17.2777L7.05522 17.428C8.37084 18.1266 9.85359 18.4984 11.3948 18.4984C16.3239 18.4984 20.3198 14.6932 20.3198 9.99916C20.3198 5.30513 16.3239 1.49987 11.3948 1.49987ZM7.98228 10.9991H12.7055C13.1404 10.9991 13.493 11.3348 13.493 11.749C13.493 12.1287 13.1967 12.4425 12.8123 12.4921L12.7055 12.4989H7.98228C7.54735 12.4989 7.19478 12.1632 7.19478 11.749C7.19478 11.3693 7.49103 11.0556 7.87542 11.0059L7.98228 10.9991ZM7.98228 7.49937H14.812C15.2469 7.49937 15.5995 7.83513 15.5995 8.2493C15.5995 8.62897 15.3032 8.94275 14.9189 8.99244L14.812 8.99924H7.98228C7.54735 8.99924 7.19478 8.66347 7.19478 8.2493C7.19478 7.86964 7.49103 7.55587 7.87542 7.50622L7.98228 7.49937Z" fill="white"/>
</svg>
