<svg width="22" height="22" viewBox="0 0 22 22" fill="none" xmlns="http://www.w3.org/2000/svg">
    <path fill-rule="evenodd" clip-rule="evenodd" d="M15.4561 14.8908C16.6818 13.1084 17.5198 11.1495 17.5198 9.16669C17.5198 5.62286 14.7775 2.75002 11.3948 2.75002C8.01203 2.75002 5.26978 5.62286 5.26978 9.16669C5.26978 11.1495 6.10775 13.1084 7.33343 14.8908C8.54987 16.6597 10.0456 18.1044 11.112 19.0195C11.287 19.1696 11.5026 19.1696 11.6775 19.0195C12.7439 18.1044 14.2397 16.6597 15.4561 14.8908ZM12.7864 20.4378C15.0476 18.4976 19.2698 14.2007 19.2698 9.16669C19.2698 4.61034 15.744 0.916687 11.3948 0.916687C7.04553 0.916687 3.51978 4.61034 3.51978 9.16669C3.51978 14.2007 7.74198 18.4976 10.0032 20.4378C10.823 21.1412 11.9665 21.1412 12.7864 20.4378Z" fill="white"/>
    <path fill-rule="evenodd" clip-rule="evenodd" d="M11.3948 7.33333C10.4283 7.33333 9.64478 8.15415 9.64478 9.16667C9.64478 10.1792 10.4283 11 11.3948 11C12.3613 11 13.1448 10.1792 13.1448 9.16667C13.1448 8.15415 12.3613 7.33333 11.3948 7.33333ZM7.89478 9.16667C7.89478 7.14162 9.46178 5.5 11.3948 5.5C13.3278 5.5 14.8948 7.14162 14.8948 9.16667C14.8948 11.1917 13.3278 12.8333 11.3948 12.8333C9.46178 12.8333 7.89478 11.1917 7.89478 9.16667Z" fill="white"/>
</svg>
