<svg width="25" height="20" viewBox="0 0 25 20" fill="none" xmlns="http://www.w3.org/2000/svg">
    <path d="M20.9947 19.0389H4.79471C2.71508 19.0389 1.01561 17.4281 0.900882 15.3985L0.894714 15.1796V2.71082C0.894714 1.29667 2.00491 0.139118 3.40985 0.0451034L3.59471 0.0389404H18.5947C20.0238 0.0389404 21.1934 1.13757 21.2885 2.52788L21.2947 2.71082V3.60144H22.1947C23.6238 3.60144 24.7934 4.70007 24.8885 6.09038L24.8947 6.27332V15.1796C24.8947 17.2375 23.2669 18.9192 21.216 19.0329L20.9947 19.0389ZM4.79471 17.2577H20.9947C22.0966 17.2577 23.0002 16.418 23.0878 15.35L23.0947 15.1796V6.27332C23.0947 5.82242 22.7561 5.4498 22.3169 5.39083L22.1947 5.38269H21.2947V14.5858C21.2947 15.0367 20.9561 15.4093 20.5169 15.4684L20.3947 15.4764C19.9391 15.4764 19.5625 15.1413 19.5029 14.7067L19.4947 14.5858V2.71082C19.4947 2.25992 19.1561 1.8873 18.7169 1.82832L18.5947 1.82019H3.59471C3.13907 1.82019 2.76253 2.15524 2.70293 2.58996L2.69471 2.71082V15.1796C2.69471 16.2699 3.54325 17.1641 4.62248 17.2508L4.79471 17.2577ZM13.1899 12.5077H16.7974C17.2945 12.5077 17.6974 12.9065 17.6974 13.3983C17.6974 13.8492 17.3588 14.2218 16.9195 14.2809L16.7974 14.2889H13.1899C12.6929 14.2889 12.2899 13.8902 12.2899 13.3983C12.2899 12.9474 12.6286 12.5748 13.0678 12.5158L13.1899 12.5077ZM9.58665 8.35678C10.0837 8.35678 10.4867 8.75555 10.4867 9.24741V13.3983C10.4867 13.8902 10.0837 14.2889 9.58665 14.2889H5.39203C4.89497 14.2889 4.49203 13.8902 4.49203 13.3983V9.24741C4.49203 8.75555 4.89497 8.35678 5.39203 8.35678H9.58665ZM8.68665 10.138H6.29203V12.5077H8.68665V10.138ZM13.1899 8.35678H16.7974C17.2945 8.35678 17.6974 8.75555 17.6974 9.24741C17.6974 9.6983 17.3588 10.0709 16.9195 10.1298L16.7974 10.138H13.1899C12.6929 10.138 12.2899 9.73927 12.2899 9.24741C12.2899 8.79652 12.6286 8.42388 13.0678 8.36486L13.1899 8.35678ZM5.39203 4.19812H16.7974C17.2945 4.19812 17.6974 4.59687 17.6974 5.08875C17.6974 5.53964 17.3588 5.91227 16.9195 5.97125L16.7974 5.97937H5.39203C4.89497 5.97937 4.49203 5.58063 4.49203 5.08875C4.49203 4.63787 4.83061 4.26523 5.2699 4.20626L5.39203 4.19812Z" fill="white"/>
</svg>
