<svg width="22" height="20" viewBox="0 0 22 20" fill="none" xmlns="http://www.w3.org/2000/svg">
    <path d="M11.3947 9.66184C9.95099 9.66184 8.76974 9.21095 7.851 8.30918C6.93225 7.40741 6.47287 6.24799 6.47287 4.83092C6.47287 3.41385 6.93225 2.25443 7.851 1.35266C8.76974 0.450886 9.95099 0 11.3947 0C12.8385 0 14.0197 0.450886 14.9385 1.35266C15.8572 2.25443 16.3166 3.41385 16.3166 4.83092C16.3166 6.24799 15.8572 7.40741 14.9385 8.30918C14.0197 9.21095 12.8385 9.66184 11.3947 9.66184ZM19.926 20H2.86349C2.31662 20 1.85178 19.8121 1.46896 19.4364C1.08615 19.0607 0.894745 18.6044 0.894745 18.0676V16.9726C0.894745 16.1567 1.10256 15.4589 1.51818 14.8792C1.93381 14.2995 2.46974 13.8594 3.12599 13.5588C4.59162 12.9147 5.99709 12.4316 7.3424 12.1095C8.68771 11.7874 10.0385 11.6264 11.3947 11.6264C12.751 11.6264 14.0963 11.7928 15.4307 12.1256C16.7651 12.4584 18.1651 12.9361 19.6307 13.5588C20.3088 13.8594 20.8557 14.2995 21.2713 14.8792C21.6869 15.4589 21.8947 16.1567 21.8947 16.9726V18.0676C21.8947 18.6044 21.7033 19.0607 21.3205 19.4364C20.9377 19.8121 20.4729 20 19.926 20ZM2.86349 18.0676H19.926V16.9726C19.926 16.6291 19.8221 16.3017 19.6143 15.9903C19.4065 15.679 19.1494 15.4482 18.8432 15.2979C17.4432 14.6323 16.1635 14.1761 15.0041 13.9291C13.8447 13.6822 12.6416 13.5588 11.3947 13.5588C10.1479 13.5588 8.93381 13.6822 7.75256 13.9291C6.57131 14.1761 5.29162 14.6323 3.9135 15.2979C3.60725 15.4482 3.35568 15.679 3.15881 15.9903C2.96193 16.3017 2.86349 16.6291 2.86349 16.9726V18.0676ZM11.3947 7.72947C12.2479 7.72947 12.9533 7.45572 13.5112 6.90821C14.069 6.36071 14.3479 5.66828 14.3479 4.83092C14.3479 3.99356 14.069 3.30113 13.5112 2.75362C12.9533 2.20612 12.2479 1.93237 11.3947 1.93237C10.5416 1.93237 9.83615 2.20612 9.27834 2.75362C8.72053 3.30113 8.44162 3.99356 8.44162 4.83092C8.44162 5.66828 8.72053 6.36071 9.27834 6.90821C9.83615 7.45572 10.5416 7.72947 11.3947 7.72947Z" fill="white"/>
</svg>
