<svg width="342" height="327" viewBox="0 0 342 327" fill="none" xmlns="http://www.w3.org/2000/svg">
    <g clip-path="url(#clip0_427_26690)">
        <path d="M103.521 161.723C101.69 159.349 99.1038 157.153 98.94 154.224C98.7899 151.538 100.791 148.87 99.9472 146.3C99.2982 144.324 97.1572 143.132 95.0651 142.5C91.0598 141.309 86.7735 141.474 82.8716 142.97L83.0834 142.821C80.7018 141.972 77.9181 142.848 76.0444 144.472C74.1705 146.095 73.0569 148.346 72.1929 150.601C71.3287 152.856 70.6592 155.194 69.4587 157.308C68.2579 159.422 66.4196 161.345 63.9941 162.076C64.8061 163.697 67.3444 164.253 68.8331 163.136C69.2134 162.827 69.5553 162.473 69.8513 162.082C70.8441 160.874 71.837 159.665 72.83 158.457C73.8516 160.276 72.3254 162.786 73.5812 164.469C74.2287 165.338 75.4114 165.667 76.5098 165.904C85.0947 167.737 94.0002 167.407 102.426 164.942C103.103 164.742 103.85 164.467 104.131 163.854C104.455 163.145 104.002 162.347 103.521 161.723Z" fill="#2F2E41"/>
        <path d="M127.862 170.986C127.809 171.222 127.774 171.461 127.758 171.703L108.994 182.538L104.433 179.91L99.5709 186.281L107.193 191.718C107.809 192.158 108.551 192.385 109.307 192.367C110.063 192.348 110.792 192.085 111.386 191.616L130.735 176.338C131.608 176.661 132.559 176.711 133.461 176.48C134.363 176.25 135.174 175.75 135.785 175.047C136.396 174.344 136.779 173.471 136.883 172.545C136.987 171.619 136.806 170.683 136.366 169.862C135.925 169.041 135.245 168.374 134.416 167.949C133.588 167.524 132.649 167.362 131.726 167.484C130.803 167.606 129.939 168.006 129.249 168.632C128.559 169.257 128.075 170.078 127.862 170.986Z" fill="#FFB7B7"/>
        <path d="M108.367 183.05L102.302 190.917C102.13 191.141 101.911 191.325 101.661 191.457C101.411 191.588 101.135 191.665 100.853 191.68C100.571 191.696 100.289 191.65 100.026 191.546C99.7636 191.443 99.5261 191.284 99.3301 191.08L92.4648 183.945C91.3254 183.055 90.5851 181.749 90.4063 180.313C90.2275 178.878 90.6249 177.43 91.5111 176.287C92.3974 175.144 93.7003 174.4 95.1341 174.217C96.5678 174.034 98.0155 174.428 99.1595 175.312L107.77 180.132C108.017 180.27 108.231 180.459 108.397 180.688C108.564 180.916 108.679 181.177 108.736 181.454C108.793 181.731 108.789 182.017 108.725 182.293C108.661 182.568 108.539 182.827 108.367 183.05Z" fill="#0C6CBF"/>
        <path d="M100.021 320.125L105.375 320.124L107.923 299.45L100.019 299.45L100.021 320.125Z" fill="#FFB7B7"/>
        <path d="M98.6543 318.374L109.2 318.374H109.201C110.983 318.374 112.693 319.083 113.953 320.344C115.213 321.606 115.922 323.317 115.922 325.101V325.32L98.6546 325.32L98.6543 318.374Z" fill="#2F2E41"/>
        <path d="M63.3287 320.125L68.684 320.124L71.2315 299.45L63.3279 299.45L63.3287 320.125Z" fill="#FFB7B7"/>
        <path d="M61.9629 318.374L72.5091 318.374H72.5095C74.2919 318.374 76.0013 319.083 77.2617 320.344C78.5221 321.606 79.2302 323.317 79.2304 325.101V325.32L61.9632 325.32L61.9629 318.374Z" fill="#2F2E41"/>
        <path d="M96.8044 158.8C97.3622 153.714 93.6955 149.139 88.6146 148.581C83.5338 148.023 78.9629 151.693 78.4051 156.778C77.8474 161.864 81.5141 166.439 86.5949 166.997C91.6757 167.555 96.2467 163.885 96.8044 158.8Z" fill="#FFB7B7"/>
        <path d="M93.0199 171.676L98.4722 174.38C98.4722 174.38 104.564 184.976 101.07 195.032C99.3731 199.914 104.151 215.477 104.151 215.477C104.151 215.477 111.553 285.97 111.576 307.727C102.38 309.142 93.644 310.891 93.2072 306.519C92.7704 302.147 87.989 250.453 87.989 250.453C87.989 250.453 81.4135 307.831 76.1719 308.705C70.9303 309.58 60.447 308.268 60.447 308.268C60.447 308.268 68.7696 224.221 74.4481 218.975L75.3217 214.603L75.2983 175.358L81.8406 172.233L93.0199 171.676Z" fill="#2F2E41"/>
        <path d="M73.5154 231.254C74.1187 230.927 74.6432 230.472 75.0517 229.921C75.4603 229.369 75.7431 228.734 75.8801 228.062C76.0172 227.389 76.0052 226.694 75.845 226.027C75.6848 225.359 75.3803 224.735 74.953 224.197L81.2939 181.893L73.0096 181.495L68.0667 223.624C67.2128 224.403 66.6738 225.468 66.5519 226.617C66.43 227.767 66.7336 228.921 67.4052 229.862C68.0768 230.802 69.0698 231.463 70.1959 231.72C71.3221 231.977 72.5032 231.811 73.5154 231.254Z" fill="#FFB7B7"/>
        <path d="M81.1138 192.493L71.2061 191.867C70.9242 191.849 70.6495 191.77 70.4006 191.637C70.1517 191.503 69.9345 191.317 69.7638 191.092C69.5931 190.867 69.473 190.607 69.4115 190.331C69.35 190.055 69.3487 189.769 69.4076 189.493L71.472 179.804C71.571 178.361 72.2379 177.016 73.3263 176.064C74.4147 175.112 75.8358 174.631 77.278 174.727C78.7202 174.822 80.0657 175.486 81.0195 176.573C81.9733 177.66 82.4576 179.081 82.366 180.525L83.1964 190.364C83.2201 190.646 83.1828 190.93 83.0871 191.196C82.9915 191.462 82.8397 191.704 82.642 191.906C82.4444 192.108 82.2056 192.265 81.9419 192.366C81.6782 192.467 81.3958 192.511 81.1138 192.493Z" fill="#0C6CBF"/>
        <path d="M97.3045 151.768C96.9439 150.13 95.7725 148.774 94.4231 147.78C92.1985 146.142 89.4705 145.337 86.714 145.505C83.9575 145.672 81.347 146.803 79.3372 148.698C78.2142 149.691 77.4045 150.99 77.0073 152.436C76.8178 153.159 76.8077 153.917 76.9778 154.644C77.148 155.372 77.4932 156.047 77.9835 156.61L78.1684 156.726C78.0008 156.015 78.5532 155.303 79.213 154.989C79.8994 154.737 80.6158 154.576 81.344 154.511C82.4457 154.303 83.4898 153.86 84.4059 153.213C85.322 152.566 86.0886 151.73 86.6541 150.761C87.073 151.953 87.7422 153.042 88.6168 153.955C89.4913 154.867 90.5509 155.581 91.7242 156.049C92.9474 156.528 96.307 157.186 97.4715 156.579C98.9571 155.803 97.6652 153.405 97.3045 151.768Z" fill="#2F2E41"/>
        <path d="M29.207 307.354C30.8083 307.917 32.5277 308.058 34.1993 307.763C35.871 307.469 37.4387 306.748 38.7513 305.671C42.0942 302.862 43.1425 298.237 43.9951 293.953L46.5175 281.281L41.2366 284.92C37.4386 287.538 33.5554 290.239 30.9259 294.03C28.2965 297.821 27.1494 302.997 29.2614 307.099" fill="#6BC127"/>
        <path d="M30.0224 323.577C29.3577 318.73 28.6738 313.821 29.1412 308.922C29.5554 304.571 30.8816 300.322 33.5815 296.837C35.0146 294.991 36.7585 293.409 38.7346 292.163C39.2498 291.838 39.7241 292.655 39.2111 292.979C35.7917 295.142 33.1469 298.336 31.658 302.1C30.0136 306.286 29.7495 310.85 30.0328 315.297C30.204 317.986 30.5678 320.657 30.9332 323.326C30.962 323.446 30.944 323.574 30.8828 323.681C30.8216 323.789 30.7217 323.87 30.6034 323.907C30.4827 323.939 30.354 323.923 30.2453 323.861C30.1366 323.799 30.0566 323.697 30.0227 323.577L30.0224 323.577Z" fill="#FCD061" fill-opacity="0.9"/>
        <path d="M34.8066 315.8C35.4933 316.845 36.4373 317.695 37.5477 318.269C38.6581 318.843 39.8974 319.121 41.1463 319.076C44.3564 318.924 47.0314 316.682 49.4393 314.553L56.5629 308.258L51.8484 308.032C48.458 307.87 44.9801 307.717 41.7508 308.765C38.5215 309.813 35.5434 312.33 34.953 315.676" fill="#6BC127"/>
        <path d="M28.1435 326.364C31.3435 320.696 35.055 314.398 41.6873 312.385C43.5312 311.827 45.4647 311.627 47.3836 311.796C47.9885 311.848 47.8374 312.781 47.2338 312.729C44.0172 312.462 40.8067 313.312 38.143 315.137C35.5796 316.883 33.5837 319.311 31.8946 321.886C30.8598 323.463 29.933 325.107 29.0062 326.749C28.71 327.273 27.8439 326.894 28.1435 326.364Z" fill="#FCD061" fill-opacity="0.9"/>
        <path d="M244.382 221.591C238.377 213.547 227.387 211.606 221.925 215.691C216.464 219.776 215.21 230.875 221.214 238.918C226.773 246.363 236.843 248.394 242.389 245.605C242.371 245.692 242.37 245.781 242.386 245.869L242.699 247.416C242.723 247.534 242.776 247.644 242.854 247.736C242.933 247.827 243.033 247.897 243.146 247.939C243.258 247.98 243.38 247.993 243.499 247.974C243.618 247.955 243.73 247.907 243.824 247.833L246.473 245.762C246.567 245.688 246.642 245.591 246.688 245.48C246.735 245.369 246.753 245.248 246.739 245.128C246.726 245.009 246.683 244.895 246.613 244.797C246.543 244.698 246.45 244.62 246.341 244.568L244.917 243.89C244.867 243.867 244.814 243.851 244.76 243.841C249.035 239.317 249.952 229.052 244.382 221.591Z" fill="#6BC127"/>
        <path d="M231.247 218.554C234.184 219.021 236.831 220.599 238.639 222.962C240.448 225.325 241.281 228.293 240.967 231.254C240.902 231.932 241.961 231.927 242.025 231.254C242.328 228.063 241.414 224.876 239.467 222.331C237.521 219.786 234.685 218.072 231.528 217.533C230.862 217.419 230.576 218.44 231.247 218.554Z" fill="white"/>
        <path d="M254.17 82.5562C259.42 74.0001 257.163 63.0606 251.353 59.4894C245.544 55.9182 234.775 58.8509 229.525 67.407C224.666 75.3267 226.5 85.4434 231.138 89.5723C231.051 89.5878 230.967 89.6199 230.892 89.6669L229.57 90.5293C229.47 90.595 229.387 90.6855 229.331 90.792C229.275 90.8985 229.248 91.0175 229.251 91.1378C229.253 91.2582 229.287 91.3757 229.348 91.4794C229.409 91.583 229.496 91.6694 229.6 91.7301L232.5 93.4284C232.604 93.4892 232.721 93.5224 232.842 93.5249C232.962 93.5274 233.081 93.4991 233.187 93.4427C233.293 93.3863 233.383 93.3036 233.449 93.2026C233.514 93.1015 233.552 92.9855 233.56 92.8654L233.664 91.29C233.666 91.235 233.662 91.18 233.651 91.126C239.431 93.4318 249.3 90.4932 254.17 82.5562Z" fill="#FF0000"/>
        <path d="M252.138 69.2174C252.789 72.1221 252.301 75.1662 250.775 77.7214C249.249 80.2766 246.801 82.1477 243.937 82.9487C243.283 83.1391 243.678 84.1221 244.328 83.9329C247.402 83.0361 250.024 81.0091 251.667 78.2585C253.311 75.5079 253.855 72.2371 253.19 69.1019C253.049 68.4405 251.996 68.5512 252.138 69.2174Z" fill="white"/>
        <path d="M161.132 123.153C160.693 113.122 152.701 105.324 145.89 105.623C139.079 105.922 131.799 114.388 132.238 124.42C132.645 133.705 139.826 141.057 145.978 141.877C145.915 141.939 145.863 142.013 145.827 142.094L145.215 143.549C145.169 143.66 145.151 143.781 145.164 143.901C145.178 144.02 145.221 144.134 145.291 144.232C145.361 144.33 145.454 144.409 145.563 144.461C145.671 144.512 145.791 144.535 145.911 144.527L149.265 144.308C149.385 144.3 149.501 144.262 149.602 144.197C149.703 144.131 149.785 144.041 149.842 143.935C149.898 143.829 149.926 143.71 149.924 143.589C149.922 143.469 149.888 143.351 149.828 143.247L149.032 141.884C149.003 141.837 148.969 141.794 148.93 141.755C155.008 140.425 161.539 132.458 161.132 123.153Z" fill="#0C6CBF"/>
        <path d="M151.984 113.242C154.149 115.283 155.449 118.078 155.614 121.05C155.78 124.023 154.799 126.945 152.874 129.215C152.44 129.739 153.317 130.331 153.749 129.811C155.794 127.344 156.831 124.195 156.654 120.995C156.476 117.795 155.096 114.781 152.791 112.556C152.304 112.087 151.494 112.769 151.984 113.242Z" fill="white"/>
        <path d="M192.362 189.699C189.737 189.534 187.188 188.748 184.924 187.406C182.661 186.064 180.748 184.204 179.341 181.979C178.947 181.348 178.432 180.655 178.705 179.879C178.8 179.581 178.993 179.325 179.253 179.151C179.513 178.977 179.823 178.897 180.135 178.923C180.939 179.021 181.458 179.809 181.557 180.564C181.67 181.42 181.066 182.092 180.321 182.411C178.5 183.188 176.663 181.987 175.18 181.028C171.8 178.843 168.083 176.867 163.988 176.618C160.199 176.388 156.136 177.875 154.028 181.163C153.66 181.739 154.575 182.27 154.942 181.698C157.032 178.436 161.257 177.265 164.931 177.769C167.121 178.115 169.235 178.833 171.182 179.893C172.192 180.417 173.171 180.999 174.13 181.61C175.044 182.248 176.011 182.803 177.023 183.27C178.709 183.963 180.942 183.909 182.12 182.312C183.219 180.823 182.369 178.344 180.531 177.925C180.128 177.845 179.711 177.867 179.319 177.988C178.926 178.11 178.569 178.327 178.281 178.62C177.993 178.913 177.781 179.273 177.666 179.668C177.551 180.063 177.536 180.48 177.622 180.882C177.805 181.759 178.465 182.618 178.976 183.335C180.51 185.495 182.509 187.284 184.826 188.569C187.143 189.853 189.718 190.602 192.362 190.758C193.043 190.792 193.041 189.733 192.362 189.699Z" fill="#D6D6D6"/>
        <path d="M293.978 116.732C296.875 115.384 300.432 114.941 303.379 116.195C306.327 117.448 308.337 120.661 307.383 123.504C306.951 124.793 305.967 126.061 306.351 127.363C306.646 128.365 307.675 129.027 308.686 129.497C309.698 129.968 310.804 130.363 311.535 131.156C312.266 131.95 312.419 133.316 311.505 133.931C311.204 134.134 310.828 134.23 310.536 134.444C310.288 134.646 310.108 134.921 310.023 135.23C309.938 135.539 309.951 135.867 310.061 136.169C310.304 136.775 310.706 137.304 311.225 137.701C312.262 138.596 313.632 139.621 313.31 140.891C313.191 141.231 312.991 141.537 312.728 141.783C312.466 142.028 312.148 142.207 311.801 142.304C311.081 142.512 310.335 142.61 309.586 142.597L278.986 143.561C277.976 143.637 276.96 143.581 275.965 143.393C275.481 143.304 275.021 143.117 274.612 142.842C274.204 142.568 273.857 142.212 273.592 141.797C273.006 140.711 273.391 139.374 274.115 138.36C274.838 137.347 275.863 136.547 276.709 135.616C277.555 134.685 278.247 133.523 278.098 132.32C277.979 131.357 277.344 130.525 276.889 129.65C276.433 128.774 276.169 127.681 276.759 126.876C277.59 125.741 279.586 125.844 280.531 124.787C281.245 123.989 281.107 122.841 281.178 121.812C281.348 119.338 283.06 117.001 285.496 115.916C286.735 115.383 288.083 115.154 289.428 115.245C290.773 115.337 292.077 115.748 293.233 116.443L293.978 116.732Z" fill="#2F2E41"/>
        <path d="M331.244 239.185V244.194L311.942 246.577L311.942 239.184L331.244 239.185Z" fill="#FFB7B7"/>
        <path d="M336.094 237.908L336.094 254.058H335.89C334.224 254.058 332.627 253.396 331.449 252.217C330.271 251.038 329.61 249.439 329.609 247.772V247.771L329.61 237.907L336.094 237.908Z" fill="#2F2E41"/>
        <path d="M307.383 247.705L306.154 252.561L286.858 250.128L288.672 242.962L307.383 247.705Z" fill="#FFB7B7"/>
        <path d="M312.398 247.659L308.437 263.315L308.239 263.265C306.624 262.856 305.238 261.821 304.386 260.389C303.533 258.957 303.284 257.244 303.692 255.628L306.112 246.065L312.398 247.659Z" fill="#2F2E41"/>
        <path d="M302.455 191.535L303.497 192.621C303.497 192.621 310.298 197.959 305.266 212.02L297.035 235.753L324.623 236.829L324.032 247.674C324.032 247.674 284.023 249.902 284.373 243.302C284.723 236.703 286.2 212.266 286.2 212.266L277.887 205.585L279.891 194.284L302.455 191.535Z" fill="#2F2E41"/>
        <path d="M281.083 202.305L277.887 205.585L267.172 235.068C267.172 235.068 265.539 242.422 269.213 244.057C272.886 245.691 296.524 254.832 296.524 254.832L298.937 246.137L280.724 235.195L289.213 224.037L290.491 206.451L281.083 202.305Z" fill="#2F2E41"/>
        <path d="M281.254 150.293L308.453 144.85L309.044 159.786L301.999 174.817L303.497 192.622L279.12 196.884L279.883 173.473C279.883 173.473 273.337 164.229 277.193 154.912L281.254 150.293Z" fill="#FBB03B"/>
        <path d="M341.904 114.861C342.04 115.488 342.037 116.137 341.896 116.763C341.754 117.389 341.478 117.976 341.085 118.483C340.692 118.99 340.193 119.405 339.623 119.698C339.053 119.991 338.425 120.156 337.784 120.18L311.702 150.453L305.638 143.087L333.183 115.646C333.214 114.566 333.639 113.535 334.379 112.748C335.118 111.961 336.12 111.473 337.195 111.376C338.27 111.279 339.343 111.581 340.211 112.223C341.079 112.865 341.681 113.804 341.904 114.861Z" fill="#FFB7B7"/>
        <path d="M317.381 147.149C317.387 147.432 317.332 147.713 317.22 147.973C317.108 148.232 316.941 148.464 316.731 148.654L309.397 155.262C308.476 156.377 307.151 157.082 305.713 157.221C304.274 157.36 302.839 156.922 301.722 156.004C300.605 155.086 299.897 153.762 299.754 152.322C299.611 150.883 300.044 149.445 300.958 148.324L306.077 139.843C306.223 139.601 306.42 139.393 306.653 139.234C306.887 139.075 307.152 138.968 307.43 138.92C307.709 138.873 307.994 138.886 308.267 138.959C308.54 139.032 308.794 139.163 309.012 139.343L316.667 145.674C316.885 145.854 317.062 146.079 317.185 146.334C317.308 146.589 317.375 146.867 317.381 147.149Z" fill="#FBB03B"/>
        <path d="M238.605 186.004C238.564 185.364 238.664 184.722 238.898 184.125C239.132 183.527 239.494 182.988 239.958 182.546C240.422 182.104 240.978 181.768 241.586 181.564C242.193 181.36 242.838 181.292 243.475 181.364L273.801 155.351L278.692 163.545L247.345 186.538C247.153 187.601 246.578 188.556 245.728 189.223C244.879 189.89 243.815 190.222 242.738 190.157C241.661 190.091 240.645 189.632 239.883 188.866C239.122 188.101 238.667 187.083 238.605 186.004Z" fill="#FFB7B7"/>
        <path d="M267.691 157.764C267.727 157.484 267.824 157.214 267.973 156.975C268.123 156.735 268.323 156.53 268.559 156.375L276.801 150.943C277.878 149.978 279.294 149.48 280.737 149.559C282.18 149.637 283.534 150.285 284.501 151.361C285.467 152.437 285.968 153.852 285.894 155.297C285.82 156.742 285.176 158.099 284.104 159.069L277.771 166.686C277.59 166.903 277.365 167.079 277.11 167.201C276.856 167.324 276.577 167.389 276.295 167.394C276.012 167.399 275.732 167.343 275.473 167.23C275.214 167.117 274.983 166.949 274.794 166.739L268.175 159.33C267.987 159.119 267.846 158.87 267.762 158.6C267.679 158.33 267.654 158.045 267.691 157.764Z" fill="#FBB03B"/>
        <path d="M292.846 143.324C298.383 143.324 302.871 138.831 302.871 133.289C302.871 127.748 298.383 123.255 292.846 123.255C287.309 123.255 282.821 127.748 282.821 133.289C282.821 138.831 287.309 143.324 292.846 143.324Z" fill="#FFB7B7"/>
        <path d="M303.102 131.863C299.936 131.608 297.308 128.443 297.637 125.281C297.674 126.584 297.231 127.856 296.393 128.853C295.554 129.851 294.379 130.506 293.089 130.692C291.637 130.853 290.045 130.413 288.781 131.146C287.381 131.958 286.933 133.931 285.474 134.632C284.065 135.31 282.275 134.386 281.579 132.984C280.883 131.583 281.053 129.9 281.515 128.404C282.173 126.272 283.371 124.346 284.993 122.815C286.615 121.283 288.605 120.198 290.77 119.664C292.935 119.131 295.201 119.167 297.348 119.769C299.495 120.372 301.45 121.521 303.022 123.103C304.353 124.444 305.41 126.152 305.581 128.034C305.753 129.916 304.881 131.958 303.192 132.804L303.102 131.863Z" fill="#2F2E41"/>
        <path d="M155.925 325.972H0.40818C0.299924 325.972 0.196108 325.929 0.119559 325.852C0.0430105 325.776 0 325.672 0 325.563C0 325.455 0.0430105 325.351 0.119559 325.274C0.196108 325.198 0.299924 325.155 0.40818 325.155H155.925C156.033 325.155 156.137 325.198 156.213 325.274C156.29 325.351 156.333 325.455 156.333 325.563C156.333 325.672 156.29 325.776 156.213 325.852C156.137 325.929 156.033 325.972 155.925 325.972Z" fill="#CACACA"/>
    </g>
    <path d="M59.62 3.64H54.48V18H60.54C61.16 18 61.72 17.94 62.2 17.82C62.68 17.7 63.1 17.54 63.48 17.32C63.84 17.12 64.16 16.88 64.42 16.6C64.68 16.32 64.9 16.02 65.08 15.7C65.24 15.4 65.36 15.08 65.44 14.72C65.5 14.4 65.54 14.08 65.54 13.76C65.54 13.22 65.46 12.74 65.3 12.34C65.12 11.96 64.92 11.62 64.68 11.34C64.42 11.06 64.14 10.84 63.84 10.66C63.54 10.5 63.24 10.36 62.94 10.26C63.3 10.1 63.6 9.92 63.84 9.66C64.1 9.44 64.28 9.18 64.44 8.9C64.58 8.62 64.68 8.34 64.76 8.06C64.82 7.78 64.86 7.5 64.86 7.26C64.86 6.78 64.78 6.36 64.66 5.98C64.52 5.62 64.34 5.28 64.1 5C63.86 4.72 63.6 4.48 63.3 4.3C62.98 4.12 62.64 3.98 62.3 3.88C61.92 3.78 61.52 3.72 61.1 3.68C60.68 3.66 60.18 3.64 59.62 3.64ZM59.98 9.76H56.4V5.32H59.98C60.52 5.32 60.98 5.38 61.36 5.48C61.74 5.56 62.06 5.7 62.28 5.9C62.52 6.08 62.68 6.3 62.8 6.56C62.9 6.82 62.94 7.12 62.94 7.46C62.94 7.78 62.9 8.08 62.84 8.36C62.76 8.64 62.62 8.88 62.42 9.08C62.2 9.28 61.9 9.46 61.52 9.58C61.12 9.7 60.62 9.76 59.98 9.76ZM60.26 16.32H56.4V11.32H60.26C60.88 11.32 61.4 11.38 61.84 11.5C62.26 11.62 62.6 11.78 62.88 12C63.14 12.22 63.32 12.5 63.44 12.8C63.56 13.1 63.62 13.44 63.62 13.82C63.62 14.2 63.56 14.54 63.44 14.84C63.32 15.14 63.14 15.42 62.88 15.62C62.6 15.86 62.26 16.02 61.84 16.14C61.4 16.26 60.88 16.32 60.26 16.32ZM79.4863 12.1H75.8863V13.54H79.4863C79.4663 13.9 79.4063 14.26 79.3063 14.66C79.1863 15.04 79.0063 15.38 78.7863 15.7C78.5663 16 78.2663 16.26 77.9263 16.46C77.5663 16.66 77.1663 16.76 76.6863 16.76C76.3463 16.76 76.0463 16.7 75.7463 16.6C75.4663 16.48 75.2063 16.34 74.9863 16.14C74.7663 15.96 74.5863 15.72 74.4463 15.46C74.3263 15.2 74.2263 14.9 74.2063 14.58H72.3663C72.4863 15.22 72.7063 15.78 72.9663 16.24C73.2262 16.72 73.5463 17.12 73.9263 17.42C74.3063 17.72 74.7263 17.96 75.2063 18.1C75.6863 18.24 76.1863 18.32 76.7463 18.32C77.4863 18.32 78.1463 18.18 78.7263 17.92C79.3063 17.64 79.8063 17.26 80.2063 16.76C80.5863 16.28 80.8863 15.68 81.0863 15C81.3063 14.32 81.4063 13.56 81.4063 12.74C81.4063 11.92 81.3063 11.18 81.0863 10.5C80.8863 9.84 80.5863 9.26 80.2063 8.76C79.8063 8.28 79.3063 7.9 78.7263 7.62C78.1463 7.36 77.4863 7.22 76.7463 7.22C76.2663 7.22 75.8063 7.28 75.3263 7.42C74.8663 7.58 74.4263 7.78 74.0463 8.08C73.6463 8.38 73.3063 8.76 73.0263 9.2C72.7463 9.66 72.5662 10.2 72.4863 10.82H74.2063C74.2663 10.56 74.3463 10.32 74.4663 10.08C74.5863 9.82 74.7463 9.6 74.9463 9.42C75.1463 9.24 75.3863 9.08 75.6863 8.96C75.9663 8.84 76.3063 8.78 76.7063 8.78C77.5463 8.78 78.2063 9.08 78.6663 9.66C79.1463 10.22 79.4063 11.04 79.4863 12.1ZM82.6016 7.54V9.1H86.2016V18H88.0016V9.1H91.6016V7.54H82.6016ZM102.522 12.76C102.522 11.9 102.422 11.14 102.182 10.46C101.962 9.78 101.662 9.2 101.242 8.72C100.822 8.24 100.302 7.86 99.7016 7.6C99.1016 7.34 98.4216 7.22 97.6616 7.22C96.9016 7.22 96.2216 7.34 95.6216 7.6C95.0216 7.86 94.5216 8.24 94.1016 8.72C93.6816 9.2 93.3616 9.78 93.1416 10.46C92.9216 11.14 92.8016 11.9 92.8016 12.76C92.8016 13.62 92.9216 14.38 93.1416 15.08C93.3616 15.76 93.6816 16.34 94.1016 16.82C94.5216 17.3 95.0216 17.68 95.6216 17.94C96.2216 18.2 96.9016 18.32 97.6616 18.32C98.4216 18.32 99.1016 18.2 99.7016 17.94C100.302 17.68 100.822 17.3 101.242 16.82C101.662 16.34 101.962 15.76 102.182 15.08C102.422 14.38 102.522 13.62 102.522 12.76ZM100.722 12.76C100.722 13.34 100.662 13.88 100.522 14.36C100.402 14.86 100.202 15.28 99.9416 15.64C99.6816 15.98 99.3616 16.26 98.9816 16.46C98.6016 16.66 98.1616 16.76 97.6616 16.76C97.1616 16.76 96.7216 16.66 96.3416 16.46C95.9616 16.26 95.6416 15.98 95.3816 15.64C95.1216 15.28 94.9216 14.86 94.8016 14.36C94.6616 13.88 94.6016 13.34 94.6016 12.76C94.6016 12.18 94.6616 11.64 94.8016 11.16C94.9216 10.68 95.1216 10.26 95.3816 9.9C95.6416 9.56 95.9616 9.28 96.3416 9.08C96.7216 8.88 97.1616 8.78 97.6616 8.78C98.1616 8.78 98.6016 8.88 98.9816 9.08C99.3616 9.28 99.6816 9.56 99.9416 9.9C100.202 10.26 100.402 10.68 100.522 11.16C100.662 11.64 100.722 12.18 100.722 12.76ZM103.715 7.54V9.1H107.315V18H109.115V9.1H112.715V7.54H103.715ZM120.741 20.56V18H128.821V20.56H130.501V16.44H129.021V7.54H121.721C121.721 8.3 121.701 9.06 121.681 9.82C121.661 10.56 121.601 11.32 121.501 12.06C121.421 12.82 121.281 13.54 121.121 14.28C120.941 15.02 120.721 15.74 120.441 16.44H119.061V20.56H120.741ZM123.441 9.1H127.221V16.44H122.261C122.481 15.88 122.641 15.28 122.781 14.66C122.921 14.06 123.021 13.44 123.101 12.8C123.181 12.18 123.261 11.56 123.301 10.92C123.361 10.3 123.381 9.7 123.441 9.1ZM141.13 14.66H139.39C139.29 14.9 139.19 15.14 139.05 15.4C138.91 15.64 138.75 15.86 138.53 16.06C138.31 16.28 138.05 16.44 137.73 16.56C137.41 16.7 137.01 16.76 136.55 16.76C136.09 16.76 135.69 16.68 135.33 16.52C134.97 16.36 134.65 16.14 134.41 15.84C134.15 15.54 133.95 15.2 133.83 14.78C133.69 14.36 133.61 13.9 133.61 13.4H141.25V12.5C141.25 11.62 141.13 10.84 140.91 10.16C140.65 9.52 140.33 8.96 139.91 8.52C139.47 8.08 138.97 7.76 138.37 7.54C137.77 7.32 137.13 7.22 136.41 7.22C136.07 7.22 135.71 7.26 135.35 7.36C134.99 7.46 134.63 7.6 134.29 7.78C133.93 7.98 133.61 8.22 133.29 8.52C132.99 8.82 132.71 9.18 132.47 9.58C132.23 9.98 132.05 10.44 131.91 10.96C131.75 11.48 131.69 12.06 131.69 12.7C131.69 13.64 131.81 14.48 132.07 15.18C132.31 15.88 132.65 16.46 133.09 16.92C133.51 17.4 134.03 17.74 134.63 17.98C135.23 18.2 135.87 18.32 136.57 18.32C137.21 18.32 137.81 18.22 138.35 18C138.87 17.8 139.33 17.52 139.71 17.16C140.11 16.82 140.43 16.44 140.67 16C140.91 15.56 141.07 15.12 141.13 14.66ZM139.45 11.96H133.61C133.63 11.5 133.73 11.08 133.89 10.68C134.05 10.3 134.25 9.96 134.51 9.68C134.77 9.4 135.07 9.18 135.43 9.02C135.77 8.86 136.15 8.78 136.55 8.78C136.99 8.78 137.37 8.84 137.73 8.98C138.07 9.14 138.39 9.34 138.63 9.6C138.87 9.88 139.07 10.2 139.23 10.6C139.35 11 139.43 11.46 139.45 11.96ZM145.143 11.76V7.54H143.343V18H145.143V13.32H150.023V18H151.823V7.54H150.023V11.76H145.143ZM156.257 11.48V7.54H154.457V18H159.157C159.737 18 160.237 17.92 160.677 17.78C161.137 17.62 161.517 17.4 161.837 17.12C162.137 16.84 162.377 16.5 162.557 16.1C162.717 15.7 162.797 15.24 162.797 14.74C162.797 14.24 162.717 13.78 162.557 13.38C162.377 12.98 162.137 12.64 161.837 12.36C161.517 12.08 161.137 11.86 160.677 11.7C160.237 11.56 159.737 11.48 159.157 11.48H156.257ZM158.797 16.56H156.257V12.92H158.637C158.997 12.92 159.317 12.96 159.617 13.02C159.897 13.08 160.157 13.2 160.357 13.34C160.557 13.48 160.717 13.68 160.837 13.9C160.937 14.14 160.997 14.42 160.997 14.74C160.997 15.08 160.937 15.36 160.837 15.58C160.717 15.82 160.577 16 160.377 16.14C160.177 16.3 159.937 16.4 159.677 16.46C159.397 16.54 159.117 16.56 158.797 16.56ZM173.643 11.96H172.723V13.46L173.003 13.42H173.323C173.443 13.4 173.543 13.4 173.663 13.4H173.943C174.363 13.4 174.723 13.42 175.023 13.48C175.303 13.56 175.543 13.66 175.723 13.8C175.883 13.92 176.023 14.1 176.103 14.28C176.163 14.46 176.203 14.68 176.203 14.92C176.203 15.48 176.003 15.92 175.583 16.26C175.163 16.6 174.543 16.76 173.723 16.76C173.403 16.76 173.103 16.74 172.803 16.66C172.503 16.6 172.223 16.48 171.983 16.34C171.723 16.2 171.523 15.98 171.343 15.74C171.163 15.48 171.063 15.16 171.003 14.78H169.203C169.243 15.3 169.383 15.78 169.623 16.22C169.843 16.66 170.163 17.04 170.543 17.34C170.943 17.66 171.403 17.9 171.943 18.06C172.483 18.24 173.083 18.32 173.743 18.32C174.263 18.32 174.763 18.26 175.283 18.12C175.783 17.98 176.243 17.76 176.643 17.48C177.043 17.18 177.383 16.84 177.623 16.4C177.863 15.98 178.003 15.48 178.003 14.88C178.003 14.46 177.943 14.12 177.823 13.82C177.683 13.54 177.523 13.3 177.343 13.1C177.143 12.92 176.943 12.78 176.723 12.68C176.503 12.58 176.303 12.52 176.123 12.48V12.44C176.283 12.34 176.463 12.24 176.643 12.12C176.843 11.98 177.003 11.84 177.143 11.66C177.303 11.46 177.423 11.26 177.503 11C177.583 10.76 177.643 10.5 177.643 10.16C177.643 9.66 177.523 9.24 177.303 8.86C177.083 8.5 176.803 8.18 176.443 7.94C176.083 7.7 175.663 7.52 175.203 7.4C174.743 7.28 174.283 7.22 173.823 7.22C173.563 7.22 173.283 7.24 172.983 7.28C172.683 7.34 172.403 7.4 172.103 7.52C171.823 7.62 171.543 7.76 171.263 7.94C171.003 8.1 170.763 8.32 170.543 8.58C170.323 8.84 170.143 9.16 170.003 9.5C169.863 9.86 169.763 10.28 169.723 10.74H171.403C171.443 10.34 171.583 10 171.763 9.74C171.943 9.48 172.143 9.28 172.403 9.14C172.623 9 172.863 8.9 173.123 8.86C173.363 8.82 173.583 8.78 173.763 8.78C174.103 8.78 174.403 8.82 174.663 8.9C174.943 9 175.143 9.1 175.323 9.26C175.483 9.4 175.623 9.58 175.723 9.76C175.803 9.96 175.843 10.16 175.843 10.36C175.843 10.64 175.783 10.9 175.643 11.1C175.483 11.3 175.323 11.46 175.103 11.58C174.883 11.72 174.643 11.8 174.383 11.86C174.123 11.92 173.883 11.96 173.643 11.96ZM180.003 10.68H181.683C181.723 10 181.963 9.5 182.343 9.16C182.743 8.84 183.323 8.66 184.123 8.66C184.903 8.66 185.483 8.8 185.903 9.08C186.323 9.36 186.523 9.8 186.523 10.44C186.523 10.86 186.443 11.14 186.283 11.34C186.123 11.52 185.903 11.64 185.623 11.66L182.683 12.02C182.303 12.08 181.923 12.16 181.543 12.3C181.163 12.46 180.823 12.64 180.523 12.92C180.243 13.18 180.003 13.5 179.823 13.9C179.623 14.3 179.543 14.76 179.543 15.3C179.543 15.8 179.623 16.24 179.823 16.6C180.003 16.98 180.243 17.3 180.543 17.56C180.843 17.8 181.203 18 181.583 18.12C181.963 18.26 182.343 18.32 182.743 18.32C183.223 18.32 183.643 18.28 184.023 18.2C184.403 18.1 184.743 17.98 185.043 17.82C185.363 17.68 185.643 17.5 185.883 17.28C186.123 17.08 186.363 16.86 186.583 16.62C186.623 16.9 186.663 17.14 186.743 17.32C186.843 17.52 186.963 17.68 187.103 17.8C187.263 17.92 187.443 18 187.683 18.06C187.903 18.1 188.163 18.14 188.483 18.14C188.683 18.14 188.863 18.12 189.003 18.08C189.143 18.06 189.303 18.02 189.443 17.98V16.74C189.343 16.76 189.243 16.78 189.143 16.78C189.043 16.8 188.943 16.82 188.863 16.82C188.663 16.82 188.503 16.76 188.423 16.64C188.323 16.52 188.283 16.36 188.283 16.2V10.12C188.283 9.6 188.183 9.14 187.943 8.78C187.723 8.42 187.423 8.1 187.043 7.88C186.683 7.64 186.263 7.48 185.783 7.38C185.303 7.26 184.803 7.22 184.303 7.22C183.683 7.22 183.123 7.28 182.603 7.4C182.083 7.52 181.643 7.72 181.263 8C180.883 8.26 180.583 8.62 180.363 9.06C180.143 9.5 180.023 10.04 180.003 10.68ZM186.483 12.68V14.36C186.483 14.66 186.423 14.92 186.323 15.16C186.203 15.42 186.063 15.62 185.883 15.82C185.703 16 185.483 16.16 185.263 16.3C185.023 16.42 184.803 16.54 184.543 16.62C184.303 16.72 184.083 16.76 183.843 16.8C183.623 16.86 183.423 16.88 183.243 16.88C182.963 16.88 182.703 16.84 182.463 16.76C182.243 16.68 182.043 16.56 181.883 16.4C181.703 16.26 181.583 16.06 181.483 15.84C181.383 15.6 181.343 15.34 181.343 15.04C181.343 14.78 181.403 14.56 181.503 14.36C181.623 14.18 181.763 14 181.983 13.86C182.183 13.74 182.423 13.62 182.683 13.54C182.963 13.44 183.263 13.4 183.583 13.34L184.443 13.22C184.723 13.2 185.003 13.16 185.263 13.1C185.503 13.06 185.743 13 185.963 12.94C186.163 12.86 186.343 12.78 186.483 12.68ZM192.936 11.76V7.54H191.136V18H192.936V13.32H197.816V18H199.616V7.54H197.816V11.76H192.936ZM208.95 13.86V18H210.75V7.54H206.11C205.91 7.54 205.69 7.54 205.47 7.56C205.23 7.56 204.99 7.58 204.75 7.6C204.51 7.64 204.27 7.68 204.01 7.76C203.77 7.82 203.55 7.94 203.35 8.06C203.19 8.16 203.03 8.3 202.87 8.44C202.71 8.62 202.57 8.8 202.45 9C202.31 9.22 202.21 9.44 202.13 9.7C202.05 9.98 202.01 10.26 202.01 10.58C202.01 11.82 202.57 12.66 203.69 13.06C203.45 13.16 203.25 13.26 203.07 13.34C202.91 13.44 202.79 13.56 202.69 13.7C202.59 13.84 202.51 14.04 202.45 14.26C202.39 14.48 202.35 14.76 202.31 15.12L202.19 16.46C202.17 16.74 202.13 16.96 202.09 17.14C202.05 17.3 202.01 17.46 201.97 17.56C201.93 17.66 201.89 17.76 201.85 17.82C201.79 17.88 201.77 17.94 201.71 18H203.69C203.75 17.88 203.79 17.74 203.81 17.58C203.85 17.44 203.87 17.3 203.89 17.16C203.91 17.04 203.91 16.92 203.93 16.82C203.93 16.72 203.93 16.66 203.95 16.62L204.03 15.5C204.05 15.08 204.13 14.78 204.27 14.56C204.37 14.32 204.55 14.18 204.75 14.06C204.97 13.96 205.23 13.9 205.55 13.88C205.85 13.86 206.21 13.86 206.63 13.86H208.95ZM205.61 9.12H208.95V12.42H206.21C206.09 12.42 205.93 12.42 205.77 12.42L205.25 12.36C205.07 12.32 204.89 12.28 204.73 12.2C204.55 12.14 204.39 12.06 204.27 11.92C204.11 11.8 204.01 11.64 203.91 11.44C203.83 11.26 203.79 11.02 203.79 10.74C203.79 10.46 203.85 10.18 203.97 9.94C204.09 9.68 204.27 9.48 204.49 9.36C204.61 9.3 204.71 9.26 204.81 9.22C204.93 9.2 205.05 9.16 205.17 9.16C205.29 9.14 205.45 9.14 205.61 9.12ZM212.582 7.54V9.1H216.182V18H217.982V9.1H221.582V7.54H212.582ZM225.202 15.56V7.54H223.402V18H225.462L230.582 9.98H230.622V18H232.442V7.54H230.382L225.242 15.56H225.202ZM237.882 3.48H236.222C236.242 3.88 236.322 4.24 236.482 4.54C236.662 4.86 236.882 5.12 237.162 5.36C237.462 5.58 237.822 5.74 238.222 5.86C238.642 5.98 239.102 6.04 239.582 6.04C240.082 6.04 240.542 5.98 240.962 5.86C241.382 5.74 241.722 5.56 242.042 5.34C242.322 5.12 242.542 4.86 242.722 4.54C242.882 4.22 242.962 3.86 242.962 3.48H241.302C241.222 3.9 241.042 4.24 240.782 4.48C240.522 4.72 240.122 4.84 239.582 4.84C239.082 4.84 238.682 4.7 238.402 4.46C238.142 4.22 237.962 3.9 237.882 3.48ZM236.862 15.56V7.54H235.062V18H237.122L242.242 9.98H242.282V18H244.102V7.54H242.042L236.902 15.56H236.862ZM254.089 11.76V7.54H252.289V18H254.089V13.32H258.969V18H260.769V7.54H258.969V11.76H254.089ZM272.302 14.66H270.562C270.462 14.9 270.362 15.14 270.222 15.4C270.082 15.64 269.922 15.86 269.702 16.06C269.482 16.28 269.222 16.44 268.902 16.56C268.582 16.7 268.182 16.76 267.722 16.76C267.262 16.76 266.862 16.68 266.502 16.52C266.142 16.36 265.822 16.14 265.582 15.84C265.322 15.54 265.122 15.2 265.002 14.78C264.862 14.36 264.782 13.9 264.782 13.4H272.422V12.5C272.422 11.62 272.302 10.84 272.082 10.16C271.822 9.52 271.502 8.96 271.082 8.52C270.642 8.08 270.142 7.76 269.542 7.54C268.942 7.32 268.302 7.22 267.582 7.22C267.242 7.22 266.882 7.26 266.522 7.36C266.162 7.46 265.802 7.6 265.462 7.78C265.102 7.98 264.782 8.22 264.462 8.52C264.162 8.82 263.882 9.18 263.642 9.58C263.402 9.98 263.222 10.44 263.082 10.96C262.922 11.48 262.862 12.06 262.862 12.7C262.862 13.64 262.982 14.48 263.242 15.18C263.482 15.88 263.822 16.46 264.262 16.92C264.682 17.4 265.202 17.74 265.802 17.98C266.402 18.2 267.042 18.32 267.742 18.32C268.382 18.32 268.982 18.22 269.522 18C270.042 17.8 270.502 17.52 270.882 17.16C271.282 16.82 271.602 16.44 271.842 16C272.082 15.56 272.242 15.12 272.302 14.66ZM270.622 11.96H264.782C264.802 11.5 264.902 11.08 265.062 10.68C265.222 10.3 265.422 9.96 265.682 9.68C265.942 9.4 266.242 9.18 266.602 9.02C266.942 8.86 267.322 8.78 267.722 8.78C268.162 8.78 268.542 8.84 268.902 8.98C269.242 9.14 269.562 9.34 269.802 9.6C270.042 9.88 270.242 10.2 270.402 10.6C270.522 11 270.602 11.46 270.622 11.96ZM273.695 7.54V9.1H277.295V18H279.095V9.1H282.695V7.54H273.695ZM286.935 18V15.88H284.895V18H286.935Z" fill="black"/>
    <defs>
        <clipPath id="clip0_427_26690">
            <rect width="342" height="269" fill="white" transform="translate(0 58)"/>
        </clipPath>
    </defs>
</svg>
