<svg width="345" height="118" viewBox="0 0 345 118" fill="none" xmlns="http://www.w3.org/2000/svg">
<path d="M149.015 1.00001V39.2086H61.5829C57.108 39.2086 45.4045 47.4699 45.4045 59.8618C45.4045 72.2538 56.1901 77.1876 61.5829 78.1055C66.9757 79.0235 162.095 78.1055 162.095 78.1055L136.623 115.281C136.623 115.281 63.8777 118.15 48.1583 115.281C32.4389 112.413 1 97.3131 1 59.8618C1 22.4106 33.0126 1.00004 49.5352 1.00001H149.015Z" fill="#0C6CBF" stroke="#0C6CBF"/>
<path d="M185.847 38.1759H164.161V1H200.993V13.7362H185.847V38.1759Z" fill="#0C6CBF" stroke="#0C6CBF"/>
<path d="M225.776 38.1759H209.598V1H279.131V38.1759H260.887V13.7362H252.626V38.1759H233.693V13.7362H225.776V38.1759Z" fill="#0C6CBF" stroke="#0C6CBF"/>
<path d="M319.749 1H285.671L297.719 33.3568L319.749 1Z" fill="#0C6CBF"/>
<path d="M317.683 38.5201H299.784L323.535 1H343.5L317.683 38.5201Z" fill="#0C6CBF"/>
<path d="M319.749 1H285.671L297.719 33.3568L319.749 1Z" stroke="#0C6CBF"/>
<path d="M317.683 38.5201H299.784L323.535 1H343.5L317.683 38.5201Z" stroke="#0C6CBF"/>
<path d="M186.191 115.626H154.523L203.058 45.4045H233.694L186.191 115.626Z" stroke="#0C6CBF" stroke-width="2"/>
<path d="M225.432 115.281H193.764L242.299 45.0603H272.935L225.432 115.281Z" fill="#0C6CBF"/>
<path d="M264.673 115.281H233.005L281.54 45.0603H312.176L264.673 115.281Z" fill="#E21E23"/>
<path d="M138 54.6985L145.917 44.7161H61.583C58.1408 46.4372 51.2563 51.807 51.2563 59.5176C51.2563 67.2281 58.1408 71.6801 61.583 72.9422H162.44" stroke="#0C6CBF" stroke-width="2" stroke-linecap="round"/>
</svg>
